<?xml version="1.0" standalone="no"?>
<!DOCTYPE svg PUBLIC "-//W3C//DTD SVG 1.1//EN"
"http://www.w3.org/Graphics/SVG/1.1/DTD/svg11.dtd">
<svg width="150.841" height="207.42" viewBox="0 0 3142.52 4321.26" version="1.1"
xmlns="http://www.w3.org/2000/svg"
xmlns:xlink="http://www.w3.org/1999/xlink">
<polyline points="209.446,2637.8 208.481,2637.65 201.027,2636.92 188.679,2636.31 181.397,2636.31 169.045,2636.92 161.591,2637.65 160.629,2637.8" style="stroke:rgb(255,0,0);stroke-width:78.740157;fill:none;stroke-opacity:0.5;stroke-linecap:round;stroke-linejoin:round;;fill:none"/>
<polyline points="209.446,2637.8 208.481,2637.65 201.027,2636.92 188.679,2636.31 181.397,2636.31 169.045,2636.92 161.591,2637.65 160.629,2637.8" style="stroke:rgb(0,0,0);stroke-width:1px;fill:none;stroke-opacity:1;stroke-linecap:round;stroke-linejoin:round;;fill:none"/>
<polyline points="209.446,2637.8 208.481,2637.65 201.027,2636.92 188.679,2636.31 181.397,2636.31 169.045,2636.92 161.591,2637.65 160.629,2637.8" style="stroke:rgb(255,0,0);stroke-width:78.740157;fill:none;stroke-opacity:0.5;stroke-linecap:round;stroke-linejoin:round;;fill:none"/>
<polyline points="209.446,2637.8 208.481,2637.65 201.027,2636.92 188.679,2636.31 181.397,2636.31 169.045,2636.92 161.591,2637.65 160.629,2637.8" style="stroke:rgb(0,0,0);stroke-width:1px;fill:none;stroke-opacity:1;stroke-linecap:round;stroke-linejoin:round;;fill:none"/>
</svg>
