<?xml version="1.0" standalone="no"?>
<!DOCTYPE svg PUBLIC "-//W3C//DTD SVG 1.1//EN"
"http://www.w3.org/Graphics/SVG/1.1/DTD/svg11.dtd">
<svg width="150.841" height="207.42" viewBox="0 0 3142.52 4321.26" version="1.1"
xmlns="http://www.w3.org/2000/svg"
xmlns:xlink="http://www.w3.org/1999/xlink">
<polyline points="160.63,2637.8 161.593,2637.65 169.047,2636.92 181.397,2636.31 188.679,2636.31 201.027,2636.92 208.481,2637.65 209.444,2637.8" style="stroke:rgb(255,0,0);stroke-width:78.740157;fill:none;stroke-opacity:0.5;stroke-linecap:round;stroke-linejoin:round;;fill:none"/>
<polyline points="160.63,2637.8 161.593,2637.65 169.047,2636.92 181.397,2636.31 188.679,2636.31 201.027,2636.92 208.481,2637.65 209.444,2637.8" style="stroke:rgb(0,0,0);stroke-width:1px;fill:none;stroke-opacity:1;stroke-linecap:round;stroke-linejoin:round;;fill:none"/>
<polyline points="160.63,2637.8 161.593,2637.65 169.047,2636.92 181.397,2636.31 188.679,2636.31 201.027,2636.92 208.481,2637.65 209.444,2637.8" style="stroke:rgb(255,0,0);stroke-width:78.740157;fill:none;stroke-opacity:0.5;stroke-linecap:round;stroke-linejoin:round;;fill:none"/>
<polyline points="160.63,2637.8 161.593,2637.65 169.047,2636.92 181.397,2636.31 188.679,2636.31 201.027,2636.92 208.481,2637.65 209.444,2637.8" style="stroke:rgb(0,0,0);stroke-width:1px;fill:none;stroke-opacity:1;stroke-linecap:round;stroke-linejoin:round;;fill:none"/>
<polyline points="767.751,3036.22 802.328,3036.22" style="stroke:rgb(255,0,0);stroke-width:78.740157;fill:none;stroke-opacity:0.5;stroke-linecap:round;stroke-linejoin:round;;fill:none"/>
<polyline points="767.751,3036.22 802.328,3036.22" style="stroke:rgb(0,0,0);stroke-width:1px;fill:none;stroke-opacity:1;stroke-linecap:round;stroke-linejoin:round;;fill:none"/>
<polyline points="767.751,3036.22 802.328,3036.22" style="stroke:rgb(255,0,0);stroke-width:78.740157;fill:none;stroke-opacity:0.5;stroke-linecap:round;stroke-linejoin:round;;fill:none"/>
<polyline points="767.751,3036.22 802.328,3036.22" style="stroke:rgb(0,0,0);stroke-width:1px;fill:none;stroke-opacity:1;stroke-linecap:round;stroke-linejoin:round;;fill:none"/>
<polyline points="802.301,2836.22 767.778,2836.22" style="stroke:rgb(255,0,0);stroke-width:78.740157;fill:none;stroke-opacity:0.5;stroke-linecap:round;stroke-linejoin:round;;fill:none"/>
<polyline points="802.301,2836.22 767.778,2836.22" style="stroke:rgb(0,0,0);stroke-width:1px;fill:none;stroke-opacity:1;stroke-linecap:round;stroke-linejoin:round;;fill:none"/>
<polyline points="802.301,2836.22 767.778,2836.22" style="stroke:rgb(255,0,0);stroke-width:78.740157;fill:none;stroke-opacity:0.5;stroke-linecap:round;stroke-linejoin:round;;fill:none"/>
<polyline points="802.301,2836.22 767.778,2836.22" style="stroke:rgb(0,0,0);stroke-width:1px;fill:none;stroke-opacity:1;stroke-linecap:round;stroke-linejoin:round;;fill:none"/>
<polyline points="167.751,3036.22 202.328,3036.22" style="stroke:rgb(255,0,0);stroke-width:78.740157;fill:none;stroke-opacity:0.5;stroke-linecap:round;stroke-linejoin:round;;fill:none"/>
<polyline points="167.751,3036.22 202.328,3036.22" style="stroke:rgb(0,0,0);stroke-width:1px;fill:none;stroke-opacity:1;stroke-linecap:round;stroke-linejoin:round;;fill:none"/>
<polyline points="167.751,3036.22 202.328,3036.22" style="stroke:rgb(255,0,0);stroke-width:78.740157;fill:none;stroke-opacity:0.5;stroke-linecap:round;stroke-linejoin:round;;fill:none"/>
<polyline points="167.751,3036.22 202.328,3036.22" style="stroke:rgb(0,0,0);stroke-width:1px;fill:none;stroke-opacity:1;stroke-linecap:round;stroke-linejoin:round;;fill:none"/>
<polyline points="202.301,2836.22 167.778,2836.22" style="stroke:rgb(255,0,0);stroke-width:78.740157;fill:none;stroke-opacity:0.5;stroke-linecap:round;stroke-linejoin:round;;fill:none"/>
<polyline points="202.301,2836.22 167.778,2836.22" style="stroke:rgb(0,0,0);stroke-width:1px;fill:none;stroke-opacity:1;stroke-linecap:round;stroke-linejoin:round;;fill:none"/>
<polyline points="202.301,2836.22 167.778,2836.22" style="stroke:rgb(255,0,0);stroke-width:78.740157;fill:none;stroke-opacity:0.5;stroke-linecap:round;stroke-linejoin:round;;fill:none"/>
<polyline points="202.301,2836.22 167.778,2836.22" style="stroke:rgb(0,0,0);stroke-width:1px;fill:none;stroke-opacity:1;stroke-linecap:round;stroke-linejoin:round;;fill:none"/>
<polyline points="767.751,2836.22 802.328,2836.22" style="stroke:rgb(255,0,0);stroke-width:78.740157;fill:none;stroke-opacity:0.5;stroke-linecap:round;stroke-linejoin:round;;fill:none"/>
<polyline points="767.751,2836.22 802.328,2836.22" style="stroke:rgb(0,0,0);stroke-width:1px;fill:none;stroke-opacity:1;stroke-linecap:round;stroke-linejoin:round;;fill:none"/>
<polyline points="767.751,2836.22 802.328,2836.22" style="stroke:rgb(255,0,0);stroke-width:78.740157;fill:none;stroke-opacity:0.5;stroke-linecap:round;stroke-linejoin:round;;fill:none"/>
<polyline points="767.751,2836.22 802.328,2836.22" style="stroke:rgb(0,0,0);stroke-width:1px;fill:none;stroke-opacity:1;stroke-linecap:round;stroke-linejoin:round;;fill:none"/>
<polyline points="802.301,2636.22 767.778,2636.22" style="stroke:rgb(255,0,0);stroke-width:78.740157;fill:none;stroke-opacity:0.5;stroke-linecap:round;stroke-linejoin:round;;fill:none"/>
<polyline points="802.301,2636.22 767.778,2636.22" style="stroke:rgb(0,0,0);stroke-width:1px;fill:none;stroke-opacity:1;stroke-linecap:round;stroke-linejoin:round;;fill:none"/>
<polyline points="802.301,2636.22 767.778,2636.22" style="stroke:rgb(255,0,0);stroke-width:78.740157;fill:none;stroke-opacity:0.5;stroke-linecap:round;stroke-linejoin:round;;fill:none"/>
<polyline points="802.301,2636.22 767.778,2636.22" style="stroke:rgb(0,0,0);stroke-width:1px;fill:none;stroke-opacity:1;stroke-linecap:round;stroke-linejoin:round;;fill:none"/>
<polyline points="802.301,3036.22 768.08,3036.22" style="stroke:rgb(255,0,0);stroke-width:78.740157;fill:none;stroke-opacity:0.5;stroke-linecap:round;stroke-linejoin:round;;fill:none"/>
<polyline points="802.301,3036.22 768.08,3036.22" style="stroke:rgb(0,0,0);stroke-width:1px;fill:none;stroke-opacity:1;stroke-linecap:round;stroke-linejoin:round;;fill:none"/>
<polyline points="802.301,3036.22 768.08,3036.22" style="stroke:rgb(255,0,0);stroke-width:78.740157;fill:none;stroke-opacity:0.5;stroke-linecap:round;stroke-linejoin:round;;fill:none"/>
<polyline points="802.301,3036.22 768.08,3036.22" style="stroke:rgb(0,0,0);stroke-width:1px;fill:none;stroke-opacity:1;stroke-linecap:round;stroke-linejoin:round;;fill:none"/>
<polyline points="938.656,4041.73 941.575,4041 948.859,4039.55 961.981,4037.6 968.667,4036.94 981.789,4036.3 988.287,4036.3 1001.41,4036.94 1008.09,4037.6 1021.22,4039.55 1028.5,4041 1031.42,4041.73" style="stroke:rgb(255,0,0);stroke-width:78.740157;fill:none;stroke-opacity:0.5;stroke-linecap:round;stroke-linejoin:round;;fill:none"/>
<polyline points="938.656,4041.73 941.575,4041 948.859,4039.55 961.981,4037.6 968.667,4036.94 981.789,4036.3 988.287,4036.3 1001.41,4036.94 1008.09,4037.6 1021.22,4039.55 1028.5,4041 1031.42,4041.73" style="stroke:rgb(0,0,0);stroke-width:1px;fill:none;stroke-opacity:1;stroke-linecap:round;stroke-linejoin:round;;fill:none"/>
<polyline points="938.656,4041.73 941.575,4041 948.859,4039.55 961.981,4037.6 968.667,4036.94 981.789,4036.3 988.287,4036.3 1001.41,4036.94 1008.09,4037.6 1021.22,4039.55 1028.5,4041 1031.42,4041.73" style="stroke:rgb(255,0,0);stroke-width:78.740157;fill:none;stroke-opacity:0.5;stroke-linecap:round;stroke-linejoin:round;;fill:none"/>
<polyline points="938.656,4041.73 941.575,4041 948.859,4039.55 961.981,4037.6 968.667,4036.94 981.789,4036.3 988.287,4036.3 1001.41,4036.94 1008.09,4037.6 1021.22,4039.55 1028.5,4041 1031.42,4041.73" style="stroke:rgb(0,0,0);stroke-width:1px;fill:none;stroke-opacity:1;stroke-linecap:round;stroke-linejoin:round;;fill:none"/>
<polyline points="479.528,3489.85 480.255,3492.76 481.707,3500.04 483.653,3513.16 484.313,3519.85 484.957,3532.97 484.957,3539.47 484.313,3552.59 483.653,3559.27 481.707,3572.4 480.255,3579.68 479.528,3582.58" style="stroke:rgb(255,0,0);stroke-width:78.740157;fill:none;stroke-opacity:0.5;stroke-linecap:round;stroke-linejoin:round;;fill:none"/>
<polyline points="479.528,3489.85 480.255,3492.76 481.707,3500.04 483.653,3513.16 484.313,3519.85 484.957,3532.97 484.957,3539.47 484.313,3552.59 483.653,3559.27 481.707,3572.4 480.255,3579.68 479.528,3582.58" style="stroke:rgb(0,0,0);stroke-width:1px;fill:none;stroke-opacity:1;stroke-linecap:round;stroke-linejoin:round;;fill:none"/>
<polyline points="479.528,3489.85 480.255,3492.76 481.707,3500.04 483.653,3513.16 484.313,3519.85 484.957,3532.97 484.957,3539.47 484.313,3552.59 483.653,3559.27 481.707,3572.4 480.255,3579.68 479.528,3582.58" style="stroke:rgb(255,0,0);stroke-width:78.740157;fill:none;stroke-opacity:0.5;stroke-linecap:round;stroke-linejoin:round;;fill:none"/>
<polyline points="479.528,3489.85 480.255,3492.76 481.707,3500.04 483.653,3513.16 484.313,3519.85 484.957,3532.97 484.957,3539.47 484.313,3552.59 483.653,3559.27 481.707,3572.4 480.255,3579.68 479.528,3582.58" style="stroke:rgb(0,0,0);stroke-width:1px;fill:none;stroke-opacity:1;stroke-linecap:round;stroke-linejoin:round;;fill:none"/>
<polyline points="482.457,4017.89 491.829,4029.43 503.373,4038.8" style="stroke:rgb(255,0,0);stroke-width:78.740157;fill:none;stroke-opacity:0.5;stroke-linecap:round;stroke-linejoin:round;;fill:none"/>
<polyline points="482.457,4017.89 491.829,4029.43 503.373,4038.8" style="stroke:rgb(0,0,0);stroke-width:1px;fill:none;stroke-opacity:1;stroke-linecap:round;stroke-linejoin:round;;fill:none"/>
<polyline points="482.457,4017.89 491.829,4029.43 503.373,4038.8" style="stroke:rgb(255,0,0);stroke-width:78.740157;fill:none;stroke-opacity:0.5;stroke-linecap:round;stroke-linejoin:round;;fill:none"/>
<polyline points="482.457,4017.89 491.829,4029.43 503.373,4038.8" style="stroke:rgb(0,0,0);stroke-width:1px;fill:none;stroke-opacity:1;stroke-linecap:round;stroke-linejoin:round;;fill:none"/>
<polyline points="538.657,4041.73 541.575,4041 548.859,4039.55 561.981,4037.6 568.667,4036.94 581.789,4036.3 588.287,4036.3 601.407,4036.94 608.093,4037.6 621.215,4039.55 628.499,4041 631.418,4041.73" style="stroke:rgb(255,0,0);stroke-width:78.740157;fill:none;stroke-opacity:0.5;stroke-linecap:round;stroke-linejoin:round;;fill:none"/>
<polyline points="538.657,4041.73 541.575,4041 548.859,4039.55 561.981,4037.6 568.667,4036.94 581.789,4036.3 588.287,4036.3 601.407,4036.94 608.093,4037.6 621.215,4039.55 628.499,4041 631.418,4041.73" style="stroke:rgb(0,0,0);stroke-width:1px;fill:none;stroke-opacity:1;stroke-linecap:round;stroke-linejoin:round;;fill:none"/>
<polyline points="538.657,4041.73 541.575,4041 548.859,4039.55 561.981,4037.6 568.667,4036.94 581.789,4036.3 588.287,4036.3 601.407,4036.94 608.093,4037.6 621.215,4039.55 628.499,4041 631.418,4041.73" style="stroke:rgb(255,0,0);stroke-width:78.740157;fill:none;stroke-opacity:0.5;stroke-linecap:round;stroke-linejoin:round;;fill:none"/>
<polyline points="538.657,4041.73 541.575,4041 548.859,4039.55 561.981,4037.6 568.667,4036.94 581.789,4036.3 588.287,4036.3 601.407,4036.94 608.093,4037.6 621.215,4039.55 628.499,4041 631.418,4041.73" style="stroke:rgb(0,0,0);stroke-width:1px;fill:none;stroke-opacity:1;stroke-linecap:round;stroke-linejoin:round;;fill:none"/>
<polyline points="767.751,2636.22 802.328,2636.22" style="stroke:rgb(255,0,0);stroke-width:78.740157;fill:none;stroke-opacity:0.5;stroke-linecap:round;stroke-linejoin:round;;fill:none"/>
<polyline points="767.751,2636.22 802.328,2636.22" style="stroke:rgb(0,0,0);stroke-width:1px;fill:none;stroke-opacity:1;stroke-linecap:round;stroke-linejoin:round;;fill:none"/>
<polyline points="767.751,2636.22 802.328,2636.22" style="stroke:rgb(255,0,0);stroke-width:78.740157;fill:none;stroke-opacity:0.5;stroke-linecap:round;stroke-linejoin:round;;fill:none"/>
<polyline points="767.751,2636.22 802.328,2636.22" style="stroke:rgb(0,0,0);stroke-width:1px;fill:none;stroke-opacity:1;stroke-linecap:round;stroke-linejoin:round;;fill:none"/>
<polyline points="167.751,2836.22 202.328,2836.22" style="stroke:rgb(255,0,0);stroke-width:78.740157;fill:none;stroke-opacity:0.5;stroke-linecap:round;stroke-linejoin:round;;fill:none"/>
<polyline points="167.751,2836.22 202.328,2836.22" style="stroke:rgb(0,0,0);stroke-width:1px;fill:none;stroke-opacity:1;stroke-linecap:round;stroke-linejoin:round;;fill:none"/>
<polyline points="167.751,2836.22 202.328,2836.22" style="stroke:rgb(255,0,0);stroke-width:78.740157;fill:none;stroke-opacity:0.5;stroke-linecap:round;stroke-linejoin:round;;fill:none"/>
<polyline points="167.751,2836.22 202.328,2836.22" style="stroke:rgb(0,0,0);stroke-width:1px;fill:none;stroke-opacity:1;stroke-linecap:round;stroke-linejoin:round;;fill:none"/>
<polyline points="209.443,2637.79 208.481,2637.65 201.027,2636.92 188.679,2636.31 181.397,2636.31 169.047,2636.92 161.593,2637.65 160.639,2637.79" style="stroke:rgb(255,0,0);stroke-width:78.740157;fill:none;stroke-opacity:0.5;stroke-linecap:round;stroke-linejoin:round;;fill:none"/>
<polyline points="209.443,2637.79 208.481,2637.65 201.027,2636.92 188.679,2636.31 181.397,2636.31 169.047,2636.92 161.593,2637.65 160.639,2637.79" style="stroke:rgb(0,0,0);stroke-width:1px;fill:none;stroke-opacity:1;stroke-linecap:round;stroke-linejoin:round;;fill:none"/>
<polyline points="209.443,2637.79 208.481,2637.65 201.027,2636.92 188.679,2636.31 181.397,2636.31 169.047,2636.92 161.593,2637.65 160.639,2637.79" style="stroke:rgb(255,0,0);stroke-width:78.740157;fill:none;stroke-opacity:0.5;stroke-linecap:round;stroke-linejoin:round;;fill:none"/>
<polyline points="209.443,2637.79 208.481,2637.65 201.027,2636.92 188.679,2636.31 181.397,2636.31 169.047,2636.92 161.593,2637.65 160.639,2637.79" style="stroke:rgb(0,0,0);stroke-width:1px;fill:none;stroke-opacity:1;stroke-linecap:round;stroke-linejoin:round;;fill:none"/>
<polyline points="285.037,3503.52 285.037,3568.92" style="stroke:rgb(255,0,0);stroke-width:78.740157;fill:none;stroke-opacity:0.5;stroke-linecap:round;stroke-linejoin:round;;fill:none"/>
<polyline points="285.037,3503.52 285.037,3568.92" style="stroke:rgb(0,0,0);stroke-width:1px;fill:none;stroke-opacity:1;stroke-linecap:round;stroke-linejoin:round;;fill:none"/>
<polyline points="285.037,3503.52 285.037,3568.92" style="stroke:rgb(255,0,0);stroke-width:78.740157;fill:none;stroke-opacity:0.5;stroke-linecap:round;stroke-linejoin:round;;fill:none"/>
<polyline points="285.037,3503.52 285.037,3568.92" style="stroke:rgb(0,0,0);stroke-width:1px;fill:none;stroke-opacity:1;stroke-linecap:round;stroke-linejoin:round;;fill:none"/>
<polyline points="479.525,3582.6 480.255,3579.68 481.707,3572.4 483.653,3559.27 484.313,3552.59 484.957,3539.47 484.957,3532.97 484.313,3519.85 483.653,3513.16 481.707,3500.04 480.255,3492.76 479.526,3489.85" style="stroke:rgb(255,0,0);stroke-width:78.740157;fill:none;stroke-opacity:0.5;stroke-linecap:round;stroke-linejoin:round;;fill:none"/>
<polyline points="479.525,3582.6 480.255,3579.68 481.707,3572.4 483.653,3559.27 484.313,3552.59 484.957,3539.47 484.957,3532.97 484.313,3519.85 483.653,3513.16 481.707,3500.04 480.255,3492.76 479.526,3489.85" style="stroke:rgb(0,0,0);stroke-width:1px;fill:none;stroke-opacity:1;stroke-linecap:round;stroke-linejoin:round;;fill:none"/>
<polyline points="479.525,3582.6 480.255,3579.68 481.707,3572.4 483.653,3559.27 484.313,3552.59 484.957,3539.47 484.957,3532.97 484.313,3519.85 483.653,3513.16 481.707,3500.04 480.255,3492.76 479.526,3489.85" style="stroke:rgb(255,0,0);stroke-width:78.740157;fill:none;stroke-opacity:0.5;stroke-linecap:round;stroke-linejoin:round;;fill:none"/>
<polyline points="479.525,3582.6 480.255,3579.68 481.707,3572.4 483.653,3559.27 484.313,3552.59 484.957,3539.47 484.957,3532.97 484.313,3519.85 483.653,3513.16 481.707,3500.04 480.255,3492.76 479.526,3489.85" style="stroke:rgb(0,0,0);stroke-width:1px;fill:none;stroke-opacity:1;stroke-linecap:round;stroke-linejoin:round;;fill:none"/>
<polyline points="202.301,3036.22 168.08,3036.22" style="stroke:rgb(255,0,0);stroke-width:78.740157;fill:none;stroke-opacity:0.5;stroke-linecap:round;stroke-linejoin:round;;fill:none"/>
<polyline points="202.301,3036.22 168.08,3036.22" style="stroke:rgb(0,0,0);stroke-width:1px;fill:none;stroke-opacity:1;stroke-linecap:round;stroke-linejoin:round;;fill:none"/>
<polyline points="202.301,3036.22 168.08,3036.22" style="stroke:rgb(255,0,0);stroke-width:78.740157;fill:none;stroke-opacity:0.5;stroke-linecap:round;stroke-linejoin:round;;fill:none"/>
<polyline points="202.301,3036.22 168.08,3036.22" style="stroke:rgb(0,0,0);stroke-width:1px;fill:none;stroke-opacity:1;stroke-linecap:round;stroke-linejoin:round;;fill:none"/>
<polyline points="285.037,3568.94 285.037,3503.5" style="stroke:rgb(255,0,0);stroke-width:78.740157;fill:none;stroke-opacity:0.5;stroke-linecap:round;stroke-linejoin:round;;fill:none"/>
<polyline points="285.037,3568.94 285.037,3503.5" style="stroke:rgb(0,0,0);stroke-width:1px;fill:none;stroke-opacity:1;stroke-linecap:round;stroke-linejoin:round;;fill:none"/>
<polyline points="285.037,3568.94 285.037,3503.5" style="stroke:rgb(255,0,0);stroke-width:78.740157;fill:none;stroke-opacity:0.5;stroke-linecap:round;stroke-linejoin:round;;fill:none"/>
<polyline points="285.037,3568.94 285.037,3503.5" style="stroke:rgb(0,0,0);stroke-width:1px;fill:none;stroke-opacity:1;stroke-linecap:round;stroke-linejoin:round;;fill:none"/>
<polyline points="502.509,4038.1 491.829,4029.43 483.153,4018.75" style="stroke:rgb(255,0,0);stroke-width:78.740157;fill:none;stroke-opacity:0.5;stroke-linecap:round;stroke-linejoin:round;;fill:none"/>
<polyline points="502.509,4038.1 491.829,4029.43 483.153,4018.75" style="stroke:rgb(0,0,0);stroke-width:1px;fill:none;stroke-opacity:1;stroke-linecap:round;stroke-linejoin:round;;fill:none"/>
<polyline points="502.509,4038.1 491.829,4029.43 483.153,4018.75" style="stroke:rgb(255,0,0);stroke-width:78.740157;fill:none;stroke-opacity:0.5;stroke-linecap:round;stroke-linejoin:round;;fill:none"/>
<polyline points="502.509,4038.1 491.829,4029.43 483.153,4018.75" style="stroke:rgb(0,0,0);stroke-width:1px;fill:none;stroke-opacity:1;stroke-linecap:round;stroke-linejoin:round;;fill:none"/>
<polyline points="631.402,4041.73 628.499,4041 621.215,4039.55 608.093,4037.6 601.407,4036.94 588.287,4036.3 581.789,4036.3 568.667,4036.94 561.981,4037.6 548.859,4039.55 541.575,4041 538.682,4041.73" style="stroke:rgb(255,0,0);stroke-width:78.740157;fill:none;stroke-opacity:0.5;stroke-linecap:round;stroke-linejoin:round;;fill:none"/>
<polyline points="631.402,4041.73 628.499,4041 621.215,4039.55 608.093,4037.6 601.407,4036.94 588.287,4036.3 581.789,4036.3 568.667,4036.94 561.981,4037.6 548.859,4039.55 541.575,4041 538.682,4041.73" style="stroke:rgb(0,0,0);stroke-width:1px;fill:none;stroke-opacity:1;stroke-linecap:round;stroke-linejoin:round;;fill:none"/>
<polyline points="631.403,4041.73 628.499,4041 621.215,4039.55 608.093,4037.6 601.407,4036.94 588.287,4036.3 581.789,4036.3 568.667,4036.94 561.981,4037.6 548.859,4039.55 541.575,4041 538.681,4041.73" style="stroke:rgb(255,0,0);stroke-width:78.740157;fill:none;stroke-opacity:0.5;stroke-linecap:round;stroke-linejoin:round;;fill:none"/>
<polyline points="631.403,4041.73 628.499,4041 621.215,4039.55 608.093,4037.6 601.407,4036.94 588.287,4036.3 581.789,4036.3 568.667,4036.94 561.981,4037.6 548.859,4039.55 541.575,4041 538.681,4041.73" style="stroke:rgb(0,0,0);stroke-width:1px;fill:none;stroke-opacity:1;stroke-linecap:round;stroke-linejoin:round;;fill:none"/>
<polyline points="1031.4,4041.73 1028.5,4041 1021.22,4039.55 1008.09,4037.6 1001.41,4036.94 988.287,4036.3 981.789,4036.3 968.667,4036.94 961.981,4037.6 948.859,4039.55 941.575,4041 938.679,4041.73" style="stroke:rgb(255,0,0);stroke-width:78.740157;fill:none;stroke-opacity:0.5;stroke-linecap:round;stroke-linejoin:round;;fill:none"/>
<polyline points="1031.4,4041.73 1028.5,4041 1021.22,4039.55 1008.09,4037.6 1001.41,4036.94 988.287,4036.3 981.789,4036.3 968.667,4036.94 961.981,4037.6 948.859,4039.55 941.575,4041 938.679,4041.73" style="stroke:rgb(0,0,0);stroke-width:1px;fill:none;stroke-opacity:1;stroke-linecap:round;stroke-linejoin:round;;fill:none"/>
<polyline points="1031.4,4041.73 1028.5,4041 1021.22,4039.55 1008.09,4037.6 1001.41,4036.94 988.287,4036.3 981.789,4036.3 968.667,4036.94 961.981,4037.6 948.859,4039.55 941.575,4041 938.682,4041.73" style="stroke:rgb(255,0,0);stroke-width:78.740157;fill:none;stroke-opacity:0.5;stroke-linecap:round;stroke-linejoin:round;;fill:none"/>
<polyline points="1031.4,4041.73 1028.5,4041 1021.22,4039.55 1008.09,4037.6 1001.41,4036.94 988.287,4036.3 981.789,4036.3 968.667,4036.94 961.981,4037.6 948.859,4039.55 941.575,4041 938.682,4041.73" style="stroke:rgb(0,0,0);stroke-width:1px;fill:none;stroke-opacity:1;stroke-linecap:round;stroke-linejoin:round;;fill:none"/>
<polyline points="2809.44,3537.79 2760.64,3537.79" style="stroke:rgb(255,0,0);stroke-width:78.740157;fill:none;stroke-opacity:0.5;stroke-linecap:round;stroke-linejoin:round;;fill:none"/>
<polyline points="2809.44,3537.79 2760.64,3537.79" style="stroke:rgb(0,0,0);stroke-width:1px;fill:none;stroke-opacity:1;stroke-linecap:round;stroke-linejoin:round;;fill:none"/>
<polyline points="2809.44,3537.79 2800.94,3537.79 2788.53,3537.79 2781.54,3537.79 2769.14,3537.79 2761.64,3537.79 2760.64,3537.79" style="stroke:rgb(255,0,0);stroke-width:78.740157;fill:none;stroke-opacity:0.5;stroke-linecap:round;stroke-linejoin:round;;fill:none"/>
<polyline points="2809.44,3537.79 2800.94,3537.79 2788.53,3537.79 2781.54,3537.79 2769.14,3537.79 2761.64,3537.79 2760.64,3537.79" style="stroke:rgb(0,0,0);stroke-width:1px;fill:none;stroke-opacity:1;stroke-linecap:round;stroke-linejoin:round;;fill:none"/>
<polyline points="2685.04,2853.2 2685.04,2819.24" style="stroke:rgb(255,0,0);stroke-width:78.740157;fill:none;stroke-opacity:0.5;stroke-linecap:round;stroke-linejoin:round;;fill:none"/>
<polyline points="2685.04,2853.2 2685.04,2819.24" style="stroke:rgb(0,0,0);stroke-width:1px;fill:none;stroke-opacity:1;stroke-linecap:round;stroke-linejoin:round;;fill:none"/>
<polyline points="2685.04,2853.2 2685.04,2819.24" style="stroke:rgb(255,0,0);stroke-width:78.740157;fill:none;stroke-opacity:0.5;stroke-linecap:round;stroke-linejoin:round;;fill:none"/>
<polyline points="2685.04,2853.2 2685.04,2819.24" style="stroke:rgb(0,0,0);stroke-width:1px;fill:none;stroke-opacity:1;stroke-linecap:round;stroke-linejoin:round;;fill:none"/>
<polyline points="2685.04,2819.26 2685.04,2853.18" style="stroke:rgb(255,0,0);stroke-width:78.740157;fill:none;stroke-opacity:0.5;stroke-linecap:round;stroke-linejoin:round;;fill:none"/>
<polyline points="2685.04,2819.26 2685.04,2853.18" style="stroke:rgb(0,0,0);stroke-width:1px;fill:none;stroke-opacity:1;stroke-linecap:round;stroke-linejoin:round;;fill:none"/>
<polyline points="2685.04,2819.26 2685.04,2853.18" style="stroke:rgb(255,0,0);stroke-width:78.740157;fill:none;stroke-opacity:0.5;stroke-linecap:round;stroke-linejoin:round;;fill:none"/>
<polyline points="2685.04,2819.26 2685.04,2853.18" style="stroke:rgb(0,0,0);stroke-width:1px;fill:none;stroke-opacity:1;stroke-linecap:round;stroke-linejoin:round;;fill:none"/>
<polyline points="2760.62,3537.79 2769.14,3537.79 2781.54,3537.79 2788.53,3537.79 2800.94,3537.79 2808.44,3537.79 2809.45,3537.79" style="stroke:rgb(255,0,0);stroke-width:78.740157;fill:none;stroke-opacity:0.5;stroke-linecap:round;stroke-linejoin:round;;fill:none"/>
<polyline points="2760.62,3537.79 2769.14,3537.79 2781.54,3537.79 2788.53,3537.79 2800.94,3537.79 2808.44,3537.79 2809.45,3537.79" style="stroke:rgb(0,0,0);stroke-width:1px;fill:none;stroke-opacity:1;stroke-linecap:round;stroke-linejoin:round;;fill:none"/>
<polyline points="2760.62,3537.79 2769.14,3537.79 2781.54,3537.79 2788.53,3537.79 2800.94,3537.79 2808.44,3537.79 2809.45,3537.79" style="stroke:rgb(255,0,0);stroke-width:78.740157;fill:none;stroke-opacity:0.5;stroke-linecap:round;stroke-linejoin:round;;fill:none"/>
<polyline points="2760.62,3537.79 2769.14,3537.79 2781.54,3537.79 2788.53,3537.79 2800.94,3537.79 2808.44,3537.79 2809.45,3537.79" style="stroke:rgb(0,0,0);stroke-width:1px;fill:none;stroke-opacity:1;stroke-linecap:round;stroke-linejoin:round;;fill:none"/>
</svg>
