<?xml version="1.0" standalone="no"?>
<!DOCTYPE svg PUBLIC "-//W3C//DTD SVG 1.1//EN"
"http://www.w3.org/Graphics/SVG/1.1/DTD/svg11.dtd">
<svg width="150.841" height="207.42" viewBox="0 0 3142.52 4321.26" version="1.1"
xmlns="http://www.w3.org/2000/svg"
xmlns:xlink="http://www.w3.org/1999/xlink">
<circle cx="2785.04" cy="3439.37" r="27.5591" style=""/>
<circle cx="2785.04" cy="3636.22" r="27.5591" style=""/>
<circle cx="2185.04" cy="3836.22" r="27.5591" style=""/>
<circle cx="2185.04" cy="3636.22" r="27.5591" style=""/>
<circle cx="2185.04" cy="3436.22" r="27.5591" style=""/>
<circle cx="2085.04" cy="3136.22" r="27.5591" style=""/>
<circle cx="1785.04" cy="3136.22" r="27.5591" style=""/>
<circle cx="1485.04" cy="2936.22" r="27.5591" style=""/>
<circle cx="1185.04" cy="3136.22" r="27.5591" style=""/>
<circle cx="1485.04" cy="3536.22" r="27.5591" style=""/>
<circle cx="985.039" cy="3936.22" r="27.5591" style=""/>
<circle cx="985.039" cy="4136.22" r="27.5591" style=""/>
<circle cx="585.039" cy="4136.22" r="27.5591" style=""/>
<circle cx="585.039" cy="3936.22" r="27.5591" style=""/>
<circle cx="185.039" cy="3536.22" r="27.5591" style=""/>
<circle cx="385.039" cy="3536.22" r="27.5591" style=""/>
<circle cx="585.039" cy="3536.22" r="27.5591" style=""/>
<circle cx="785.039" cy="3136.22" r="27.5591" style=""/>
<circle cx="785.039" cy="2936.22" r="27.5591" style=""/>
<circle cx="785.039" cy="2736.22" r="27.5591" style=""/>
<circle cx="185.039" cy="3136.22" r="27.5591" style=""/>
<circle cx="185.039" cy="2936.22" r="27.5591" style=""/>
<circle cx="185.039" cy="2736.22" r="27.5591" style=""/>
<circle cx="185.039" cy="2536.22" r="27.5591" style=""/>
<circle cx="785.039" cy="2536.22" r="27.5591" style=""/>
<circle cx="1185.04" cy="2536.22" r="27.5591" style=""/>
<circle cx="1785.04" cy="2536.22" r="27.5591" style=""/>
<circle cx="2085.04" cy="2536.22" r="27.5591" style=""/>
<circle cx="2585.04" cy="2836.22" r="27.5591" style=""/>
<circle cx="2785.04" cy="2836.22" r="27.5591" style=""/>
<circle cx="1726.77" cy="1736.22" r="27.5591" style=""/>
<circle cx="2155.91" cy="1736.22" r="27.5591" style=""/>
<circle cx="2585.04" cy="1736.22" r="27.5591" style=""/>
<circle cx="2485.04" cy="1036.22" r="27.5591" style=""/>
<circle cx="2785.04" cy="236.22" r="27.5591" style=""/>
<circle cx="2391.34" cy="236.22" r="27.5591" style=""/>
<circle cx="1585.04" cy="236.22" r="27.5591" style=""/>
<circle cx="1191.34" cy="236.22" r="27.5591" style=""/>
<circle cx="1685.04" cy="1036.22" r="27.5591" style=""/>
<circle cx="785.039" cy="1929.92" r="27.5591" style=""/>
<circle cx="785.039" cy="1536.22" r="27.5591" style=""/>
<circle cx="285.039" cy="929.921" r="27.5591" style=""/>
<circle cx="285.039" cy="536.22" r="27.5591" style=""/>
</svg>
