<?xml version="1.0" standalone="no"?>
<!DOCTYPE svg PUBLIC "-//W3C//DTD SVG 1.1//EN"
"http://www.w3.org/Graphics/SVG/1.1/DTD/svg11.dtd">
<svg width="150.841" height="207.42" viewBox="0 0 3142.52 4321.26" version="1.1"
xmlns="http://www.w3.org/2000/svg"
xmlns:xlink="http://www.w3.org/1999/xlink">
<g fill-rule="evenodd"><path d="M 118.11,3536.22 L 119.396,3523.16 L 123.205,3510.61 L 129.39,3499.04 L 137.713,3488.89 L 145.669,3482.37 L 145.67,3185.01 L 140.497,3180.76 L 132.663,3171.22 L 126.842,3160.33 L 123.258,3148.51 L 122.047,3136.22 L 123.258,3123.93 L 126.842,3112.11 L 132.663,3101.22 L 140.497,3091.68 L 150.043,3083.84 L 160.933,3078.02 L 172.75,3074.44 L 185.039,3073.23 L 197.329,3074.44 L 209.145,3078.02 L 220.036,3083.84 L 229.582,3091.68 L 237.415,3101.22 L 243.237,3112.11 L 246.821,3123.93 L 248.031,3136.22 L 246.821,3148.51 L 243.237,3160.33 L 237.415,3171.22 L 229.582,3180.76 L 224.409,3185.01 L 224.409,3482.37 L 232.365,3488.89 L 240.689,3499.04 L 246.874,3510.61 L 250.682,3523.16 L 251.969,3536.22 L 250.682,3549.28 L 246.874,3561.83 L 240.689,3573.4 L 232.365,3583.55 L 224.409,3590.08 L 224.409,3814.56 L 506.693,4096.85 L 531.184,4096.85 L 537.713,4088.89 L 547.856,4080.57 L 559.427,4074.39 L 571.982,4070.58 L 585.039,4069.29 L 598.097,4070.58 L 610.652,4074.39 L 622.223,4080.57 L 632.365,4088.89 L 638.895,4096.85 L 931.184,4096.85 L 937.713,4088.89 L 947.856,4080.57 L 959.427,4074.39 L 971.982,4070.58 L 985.039,4069.29 L 998.097,4070.58 L 1010.65,4074.39 L 1022.22,4080.57 L 1032.37,4088.89 L 1038.89,4096.85 L 2145.67,4096.85 L 2145.67,3895.28 L 2125.98,3895.28 L 2125.98,3777.17 L 2244.09,3777.17 L 2244.09,3796.85 L 2745.67,3796.85 L 2745.67,3685.01 L 2740.5,3680.76 L 2732.66,3671.22 L 2726.84,3660.33 L 2723.26,3648.51 L 2722.05,3636.22 L 2723.26,3623.93 L 2726.84,3612.11 L 2732.66,3601.22 L 2740.5,3591.68 L 2750.04,3583.84 L 2760.93,3578.02 L 2772.75,3574.44 L 2785.04,3573.23 L 2797.33,3574.44 L 2809.15,3578.02 L 2820.04,3583.84 L 2829.58,3591.68 L 2833.83,3596.85 L 2945.67,3596.85 L 2945.67,1375.59 L 2195.93,1375.59 L 2194.16,1381.42 L 2183.24,1401.84 L 2168.56,1419.74 L 2150.66,1434.43 L 2130.24,1445.34 L 2108.08,1452.06 L 2085.04,1454.33 L 1919.79,1454.33 L 1844.88,1529.24 L 1844.88,1736.22 L 1842.61,1759.26 L 1835.89,1781.42 L 1825.2,1801.43 L 1825.2,1814.96 L 1823.31,1834.16 L 1817.7,1852.63 L 1808.61,1869.64 L 1796.37,1884.56 L 1781.45,1896.8 L 1764.44,1905.89 L 1745.97,1911.49 L 1726.77,1913.39 L 1707.57,1911.49 L 1689.11,1905.89 L 1672.09,1896.8 L 1657.17,1884.56 L 1644.93,1869.64 L 1635.84,1852.63 L 1630.24,1834.16 L 1628.35,1814.96 L 1628.35,1801.43 L 1617.65,1781.42 L 1610.93,1759.26 L 1608.66,1736.22 L 1608.66,1480.31 L 1610.93,1457.27 L 1617.65,1435.12 L 1628.57,1414.7 L 1643.25,1396.8 L 1787.35,1252.7 L 1805.25,1238.02 L 1825.67,1227.1 L 1847.82,1220.38 L 1870.87,1218.11 L 1966.93,1218.11 L 1966.93,354.331 L 1585.04,354.331 L 1562,352.061 L 1539.84,345.34 L 1527.2,338.583 L 1482.68,338.583 L 1482.68,294.062 L 1475.92,281.419 L 1469.2,259.263 L 1466.93,236.22 L 1469.2,213.178 L 1475.92,191.022 L 1482.68,178.379 L 1482.68,133.858 L 1527.2,133.858 L 1539.84,127.101 L 1562,120.38 L 1585.04,118.11 L 2391.34,118.11 L 2414.38,120.38 L 2436.54,127.101 L 2456.96,138.015 L 2474.85,152.704 L 2489.54,170.602 L 2500.46,191.022 L 2507.18,213.178 L 2509.45,236.22 L 2507.18,259.263 L 2500.46,281.419 L 2489.54,301.839 L 2474.85,319.737 L 2456.96,334.426 L 2436.54,345.34 L 2414.38,352.061 L 2391.34,354.331 L 2203.15,354.331 L 2203.15,1296.85 L 2985.04,1296.85 L 2992.72,1297.61 L 3000.11,1299.85 L 3006.91,1303.49 L 3012.88,1308.38 L 3017.77,1314.35 L 3021.41,1321.15 L 3023.65,1328.54 L 3024.41,1336.22 L 3024.41,3636.22 L 3023.65,3643.9 L 3021.41,3651.29 L 3017.77,3658.09 L 3012.88,3664.06 L 3006.91,3668.96 L 3000.11,3672.59 L 2992.72,3674.83 L 2985.04,3675.59 L 2833.83,3675.59 L 2829.58,3680.76 L 2824.41,3685.01 L 2824.41,3836.22 L 2823.65,3843.9 L 2821.41,3851.29 L 2817.77,3858.09 L 2812.88,3864.06 L 2806.91,3868.96 L 2800.11,3872.59 L 2792.72,3874.83 L 2785.04,3875.59 L 2244.09,3875.59 L 2244.09,3895.28 L 2224.41,3895.28 L 2224.41,4136.22 L 2223.65,4143.9 L 2221.41,4151.29 L 2217.77,4158.09 L 2212.88,4164.06 L 2206.91,4168.96 L 2200.1,4172.59 L 2192.72,4174.83 L 2185.04,4175.59 L 1038.89,4175.59 L 1032.37,4183.55 L 1022.22,4191.87 L 1010.65,4198.05 L 998.097,4201.86 L 985.039,4203.15 L 971.982,4201.86 L 959.427,4198.05 L 947.856,4191.87 L 937.713,4183.55 L 931.184,4175.59 L 638.895,4175.59 L 632.365,4183.55 L 622.223,4191.87 L 610.652,4198.05 L 598.097,4201.86 L 585.039,4203.15 L 571.982,4201.86 L 559.427,4198.05 L 547.856,4191.87 L 537.713,4183.55 L 531.184,4175.59 L 490.385,4175.59 L 484.227,4175.11 L 478.219,4173.66 L 472.512,4171.3 L 467.244,4168.07 L 462.546,4164.06 L 171.566,3873.08 L 169.973,3872.59 L 163.167,3868.96 L 157.201,3864.06 L 152.304,3858.09 L 148.666,3851.29 L 146.426,3843.9 L 145.669,3836.22 L 145.669,3590.08 L 137.713,3583.55 L 129.39,3573.4 L 123.205,3561.83 L 119.396,3549.28 L 118.11,3536.22 z " style="fill-opacity:1.000000;fill:rgb(103,198,105);stroke:rgb(0,0,0);stroke-width:2"/></g>
<g fill-rule="evenodd"><path d="M 122.047,2936.22 L 123.258,2923.93 L 126.842,2912.11 L 132.663,2901.22 L 140.497,2891.68 L 150.043,2883.84 L 160.933,2878.02 L 172.75,2874.44 L 185.039,2873.23 L 197.329,2874.44 L 209.145,2878.02 L 220.036,2883.84 L 229.582,2891.68 L 237.415,2901.22 L 243.237,2912.11 L 246.821,2923.93 L 248.031,2936.22 L 246.821,2948.51 L 243.237,2960.33 L 237.415,2971.22 L 229.582,2980.76 L 220.036,2988.6 L 209.145,2994.42 L 197.329,2998 L 185.039,2999.21 L 172.75,2998 L 160.933,2994.42 L 150.043,2988.6 L 140.497,2980.76 L 132.663,2971.22 L 126.842,2960.33 L 123.258,2948.51 L 122.047,2936.22 z " style="fill-opacity:1.000000;fill:rgb(115,81,255);stroke:rgb(0,0,0);stroke-width:2"/></g>
<g fill-rule="evenodd"><path d="M 122.047,2736.22 L 123.258,2723.93 L 126.842,2712.11 L 132.663,2701.22 L 140.497,2691.68 L 150.043,2683.84 L 160.933,2678.02 L 172.75,2674.44 L 185.039,2673.23 L 197.329,2674.44 L 209.145,2678.02 L 220.036,2683.84 L 229.582,2691.68 L 233.826,2696.85 L 385.039,2696.85 L 392.72,2697.61 L 400.106,2699.85 L 406.912,2703.49 L 412.878,2708.38 L 417.774,2714.35 L 421.413,2721.15 L 423.653,2728.54 L 424.409,2736.22 L 424.409,3482.37 L 432.365,3488.89 L 440.689,3499.04 L 446.874,3510.61 L 450.682,3523.16 L 451.969,3536.22 L 450.682,3549.28 L 446.874,3561.83 L 440.689,3573.4 L 432.365,3583.55 L 422.223,3591.87 L 410.652,3598.05 L 398.097,3601.86 L 385.039,3603.15 L 371.982,3601.86 L 359.427,3598.05 L 347.856,3591.87 L 337.713,3583.55 L 329.39,3573.4 L 323.205,3561.83 L 319.396,3549.28 L 318.11,3536.22 L 319.396,3523.16 L 323.205,3510.61 L 329.39,3499.04 L 337.713,3488.89 L 345.669,3482.37 L 345.669,2775.59 L 233.826,2775.59 L 229.582,2780.76 L 220.036,2788.6 L 209.145,2794.42 L 197.329,2798 L 185.039,2799.21 L 172.75,2798 L 160.933,2794.42 L 150.043,2788.6 L 140.497,2780.76 L 132.663,2771.22 L 126.842,2760.33 L 123.258,2748.51 L 122.047,2736.22 z " style="fill-opacity:1.000000;fill:rgb(74,236,41);stroke:rgb(0,0,0);stroke-width:2"/></g>
<g fill-rule="evenodd"><path d="M 122.047,2599.21 L 122.047,2473.23 L 248.031,2473.23 L 248.031,2599.21 L 122.047,2599.21 z " style="fill-opacity:1.000000;fill:rgb(205,186,171);stroke:rgb(0,0,0);stroke-width:2"/></g>
<g fill-rule="evenodd"><path d="M 166.929,2136.22 L 166.929,929.92 L 169.199,906.878 L 175.92,884.722 L 186.834,864.302 L 201.523,846.404 L 219.421,831.715 L 239.841,820.801 L 261.997,814.08 L 285.039,811.81 L 308.082,814.08 L 330.238,820.801 L 350.658,831.715 L 368.556,846.404 L 383.244,864.302 L 394.159,884.722 L 400.88,906.878 L 403.15,929.92 L 403.15,2018.11 L 686.614,2018.11 L 686.614,1936.22 L 688.505,1917.02 L 694.106,1898.55 L 703.202,1881.54 L 715.442,1866.62 L 730.357,1854.38 L 747.374,1845.29 L 765.838,1839.69 L 785.039,1837.8 L 804.241,1839.69 L 822.705,1845.29 L 839.721,1854.38 L 854.636,1866.62 L 866.877,1881.54 L 875.972,1898.55 L 881.573,1917.02 L 883.465,1936.22 L 883.465,2018.11 L 2036.11,2018.11 L 2037.79,2016.43 L 2037.79,1736.22 L 2040.06,1713.18 L 2046.78,1691.02 L 2057.48,1671.01 L 2057.48,1657.48 L 2059.37,1638.28 L 2064.97,1619.81 L 2074.07,1602.8 L 2086.31,1587.88 L 2101.22,1575.64 L 2118.24,1566.55 L 2136.7,1560.95 L 2155.91,1559.06 L 2175.11,1560.95 L 2193.57,1566.55 L 2210.59,1575.64 L 2225.5,1587.88 L 2237.74,1602.8 L 2246.84,1619.81 L 2252.44,1638.28 L 2254.33,1657.48 L 2254.33,1671.02 L 2265.02,1691.02 L 2271.74,1713.18 L 2274.01,1736.22 L 2274.01,2065.35 L 2271.74,2088.39 L 2265.02,2110.55 L 2254.11,2130.97 L 2239.42,2148.87 L 2168.56,2219.73 L 2154.46,2231.77 L 2138.66,2241.46 L 2121.54,2248.55 L 2103.52,2252.88 L 2085.04,2254.33 L 294.487,2254.33 L 289.763,2253.87 L 285.039,2254.33 L 261.997,2252.06 L 239.841,2245.34 L 219.421,2234.43 L 201.523,2219.74 L 186.834,2201.84 L 175.92,2181.42 L 169.199,2159.26 L 166.929,2136.22 z " style="fill-opacity:1.000000;fill:rgb(242,251,227);stroke:rgb(0,0,0);stroke-width:2"/></g>
<g fill-rule="evenodd"><path d="M 166.929,536.22 L 169.199,513.178 L 175.92,491.022 L 182.677,478.38 L 182.677,433.858 L 227.198,433.858 L 239.841,427.101 L 261.997,420.38 L 285.039,418.11 L 1073.23,418.11 L 1073.23,236.22 L 1075.5,213.178 L 1082.22,191.022 L 1093.13,170.602 L 1107.82,152.704 L 1125.72,138.015 L 1146.14,127.101 L 1168.3,120.38 L 1191.34,118.11 L 1214.38,120.38 L 1236.54,127.101 L 1256.96,138.015 L 1274.85,152.704 L 1289.54,170.602 L 1300.46,191.022 L 1307.18,213.178 L 1309.45,236.22 L 1309.45,536.22 L 1307.18,559.263 L 1300.46,581.419 L 1289.76,601.427 L 1289.76,829.92 L 1287.87,849.122 L 1283.46,863.649 L 1283.46,957.48 L 1598.43,957.48 L 1598.43,949.606 L 1771.65,949.606 L 1771.65,1122.83 L 1598.43,1122.83 L 1598.43,1114.96 L 1283.46,1114.96 L 1283.46,1536.22 L 1281.57,1555.42 L 1275.97,1573.89 L 1266.88,1590.9 L 1254.64,1605.82 L 1239.72,1618.06 L 1222.71,1627.15 L 1204.24,1632.75 L 1185.04,1634.65 L 785.039,1634.65 L 765.838,1632.75 L 747.374,1627.15 L 730.357,1618.06 L 726.583,1614.96 L 706.299,1614.96 L 706.299,1594.68 L 703.202,1590.9 L 694.106,1573.89 L 688.505,1555.42 L 686.614,1536.22 L 688.505,1517.02 L 694.106,1498.55 L 703.202,1481.54 L 706.299,1477.76 L 706.299,1457.48 L 726.583,1457.48 L 730.357,1454.38 L 747.374,1445.29 L 765.838,1439.69 L 785.039,1437.8 L 1086.61,1437.8 L 1086.61,836.22 L 1088.51,817.019 L 1092.91,802.491 L 1092.91,654.331 L 285.039,654.331 L 261.997,652.061 L 239.841,645.34 L 227.198,638.583 L 182.677,638.583 L 182.677,594.061 L 175.92,581.419 L 169.199,559.263 L 166.929,536.22 z " style="fill-opacity:1.000000;fill:rgb(70,124,194);stroke:rgb(0,0,0);stroke-width:2"/></g>
<g fill-rule="evenodd"><path d="M 518.11,4003.15 L 518.11,3869.29 L 545.67,3869.29 L 545.669,3603.15 L 518.11,3603.15 L 518.11,3469.29 L 545.669,3469.29 L 545.669,2536.22 L 546.426,2528.54 L 548.666,2521.15 L 552.304,2514.35 L 557.201,2508.38 L 563.167,2503.49 L 569.973,2499.85 L 577.359,2497.61 L 585.039,2496.85 L 736.253,2496.85 L 740.497,2491.68 L 750.043,2483.84 L 760.933,2478.02 L 772.75,2474.44 L 785.039,2473.23 L 797.329,2474.44 L 809.145,2478.02 L 820.036,2483.84 L 829.582,2491.68 L 833.826,2496.85 L 1146.55,2496.85 L 1154.42,2490.39 L 1163.95,2485.3 L 1174.29,2482.16 L 1185.04,2481.1 L 1195.79,2482.16 L 1206.13,2485.3 L 1215.66,2490.39 L 1223.53,2496.85 L 1741.32,2496.85 L 1743.28,2494.46 L 1752.23,2487.12 L 1762.44,2481.66 L 1773.52,2478.3 L 1785.04,2477.17 L 1796.56,2478.3 L 1807.64,2481.66 L 1817.85,2487.12 L 1826.8,2494.46 L 1834.14,2503.41 L 1839.6,2513.62 L 1842.96,2524.7 L 1844.09,2536.22 L 1842.96,2547.74 L 1839.6,2558.82 L 1834.14,2569.03 L 1826.8,2577.98 L 1817.85,2585.32 L 1807.64,2590.78 L 1796.56,2594.14 L 1785.04,2595.28 L 1773.52,2594.14 L 1762.44,2590.78 L 1752.23,2585.32 L 1743.28,2577.98 L 1741.32,2575.59 L 1223.53,2575.59 L 1215.66,2582.05 L 1206.13,2587.14 L 1195.79,2590.28 L 1185.04,2591.34 L 1174.29,2590.28 L 1163.95,2587.14 L 1154.42,2582.05 L 1146.55,2575.59 L 833.826,2575.59 L 829.582,2580.76 L 820.036,2588.6 L 809.145,2594.42 L 797.329,2598 L 785.039,2599.21 L 772.75,2598 L 760.933,2594.42 L 750.043,2588.6 L 740.497,2580.76 L 736.253,2575.59 L 624.409,2575.59 L 624.409,3469.29 L 651.969,3469.29 L 651.969,3603.15 L 624.409,3603.15 L 624.41,3869.29 L 651.969,3869.29 L 651.969,4003.15 L 518.11,4003.15 z " style="fill-opacity:1.000000;fill:rgb(84,248,27);stroke:rgb(0,0,0);stroke-width:2"/></g>
<g fill-rule="evenodd"><path d="M 722.047,3136.22 L 723.258,3123.93 L 726.842,3112.11 L 732.663,3101.22 L 740.497,3091.68 L 750.043,3083.84 L 760.933,3078.02 L 772.75,3074.44 L 785.039,3073.23 L 797.329,3074.44 L 809.145,3078.02 L 820.036,3083.84 L 829.582,3091.68 L 833.826,3096.85 L 1146.55,3096.85 L 1154.42,3090.39 L 1163.95,3085.3 L 1174.29,3082.16 L 1185.04,3081.1 L 1195.79,3082.16 L 1206.13,3085.3 L 1215.66,3090.39 L 1224.01,3097.25 L 1230.87,3105.6 L 1235.96,3115.13 L 1239.1,3125.47 L 1240.16,3136.22 L 1239.1,3146.97 L 1235.96,3157.31 L 1230.87,3166.84 L 1224.01,3175.19 L 1215.66,3182.05 L 1206.13,3187.14 L 1195.79,3190.28 L 1185.04,3191.34 L 1174.29,3190.28 L 1163.95,3187.14 L 1154.42,3182.05 L 1146.55,3175.59 L 1024.41,3175.59 L 1024.41,3869.29 L 1051.97,3869.29 L 1051.97,4003.15 L 918.11,4003.15 L 918.11,3869.29 L 945.669,3869.29 L 945.669,3175.59 L 833.826,3175.59 L 829.582,3180.76 L 820.036,3188.6 L 809.145,3194.42 L 797.329,3198 L 785.039,3199.21 L 772.75,3198 L 760.933,3194.42 L 750.043,3188.6 L 740.497,3180.76 L 732.663,3171.22 L 726.842,3160.33 L 723.258,3148.51 L 722.047,3136.22 z " style="fill-opacity:1.000000;fill:rgb(232,231,141);stroke:rgb(0,0,0);stroke-width:2"/></g>
<g fill-rule="evenodd"><path d="M 722.047,2936.22 L 723.258,2923.93 L 726.842,2912.11 L 732.663,2901.22 L 740.497,2891.68 L 750.043,2883.84 L 760.933,2878.02 L 772.75,2874.44 L 785.039,2873.23 L 797.329,2874.44 L 809.145,2878.02 L 820.036,2883.84 L 829.582,2891.68 L 837.415,2901.22 L 843.237,2912.11 L 846.821,2923.93 L 848.031,2936.22 L 846.821,2948.51 L 843.237,2960.33 L 837.415,2971.22 L 829.582,2980.76 L 820.036,2988.6 L 809.145,2994.42 L 797.329,2998 L 785.039,2999.21 L 772.75,2998 L 760.933,2994.42 L 750.043,2988.6 L 740.497,2980.76 L 732.663,2971.22 L 726.842,2960.33 L 723.258,2948.51 L 722.047,2936.22 z " style="fill-opacity:1.000000;fill:rgb(118,90,46);stroke:rgb(0,0,0);stroke-width:2"/></g>
<g fill-rule="evenodd"><path d="M 722.047,2736.22 L 723.258,2723.93 L 726.842,2712.11 L 732.663,2701.22 L 740.497,2691.68 L 750.043,2683.84 L 760.933,2678.02 L 772.75,2674.44 L 785.039,2673.23 L 797.329,2674.44 L 809.145,2678.02 L 820.036,2683.84 L 829.582,2691.68 L 833.826,2696.85 L 1085.04,2696.85 L 1092.72,2697.61 L 1100.11,2699.85 L 1106.91,2703.49 L 1112.88,2708.38 L 1301.35,2896.85 L 1446.55,2896.85 L 1454.42,2890.39 L 1463.95,2885.3 L 1474.29,2882.16 L 1485.04,2881.1 L 1495.79,2882.16 L 1506.13,2885.3 L 1515.66,2890.39 L 1524.01,2897.25 L 1530.87,2905.6 L 1535.96,2915.13 L 1539.1,2925.47 L 1540.16,2936.22 L 1539.1,2946.97 L 1535.96,2957.31 L 1530.87,2966.84 L 1524.01,2975.19 L 1515.66,2982.05 L 1506.13,2987.14 L 1495.79,2990.28 L 1485.04,2991.34 L 1474.29,2990.28 L 1463.95,2987.14 L 1454.42,2982.05 L 1446.55,2975.59 L 1285.04,2975.59 L 1277.36,2974.83 L 1269.97,2972.59 L 1263.17,2968.96 L 1257.2,2964.06 L 1068.73,2775.59 L 833.826,2775.59 L 829.582,2780.76 L 820.036,2788.6 L 809.145,2794.42 L 797.329,2798 L 785.039,2799.21 L 772.75,2798 L 760.933,2794.42 L 750.043,2788.6 L 740.497,2780.76 L 732.663,2771.22 L 726.842,2760.33 L 723.258,2748.51 L 722.047,2736.22 z " style="fill-opacity:1.000000;fill:rgb(99,51,159);stroke:rgb(0,0,0);stroke-width:2"/></g>
<g fill-rule="evenodd"><path d="M 1429.92,3536.22 L 1430.98,3525.47 L 1434.12,3515.13 L 1439.21,3505.6 L 1446.06,3497.25 L 1454.42,3490.39 L 1463.95,3485.3 L 1474.29,3482.16 L 1485.04,3481.1 L 1495.79,3482.16 L 1506.13,3485.3 L 1515.66,3490.39 L 1524.01,3497.25 L 1530.87,3505.6 L 1535.96,3515.13 L 1539.1,3525.47 L 1540.16,3536.22 L 1539.1,3546.97 L 1535.96,3557.31 L 1530.87,3566.84 L 1524.41,3574.71 L 1524.41,3596.85 L 2141.32,3596.85 L 2143.28,3594.46 L 2152.23,3587.12 L 2162.44,3581.66 L 2173.52,3578.3 L 2185.04,3577.17 L 2196.56,3578.3 L 2207.64,3581.66 L 2217.85,3587.12 L 2226.8,3594.46 L 2234.14,3603.41 L 2239.6,3613.62 L 2242.96,3624.7 L 2244.09,3636.22 L 2242.96,3647.74 L 2239.6,3658.82 L 2234.14,3669.03 L 2226.8,3677.98 L 2217.85,3685.32 L 2207.64,3690.78 L 2196.56,3694.14 L 2185.04,3695.28 L 2173.52,3694.14 L 2162.44,3690.78 L 2152.23,3685.32 L 2143.28,3677.98 L 2141.32,3675.59 L 1485.04,3675.59 L 1477.36,3674.83 L 1469.97,3672.59 L 1463.17,3668.96 L 1457.2,3664.06 L 1452.3,3658.09 L 1448.67,3651.29 L 1446.43,3643.9 L 1445.67,3636.22 L 1445.67,3574.71 L 1439.21,3566.84 L 1434.12,3557.31 L 1430.98,3546.97 L 1429.92,3536.22 z " style="fill-opacity:1.000000;fill:rgb(201,154,102);stroke:rgb(0,0,0);stroke-width:2"/></g>
<g fill-rule="evenodd"><path d="M 1725.98,3195.28 L 1725.98,3077.17 L 1844.09,3077.17 L 1844.09,3096.85 L 2046.55,3096.85 L 2054.42,3090.39 L 2063.95,3085.3 L 2074.29,3082.16 L 2085.04,3081.1 L 2095.79,3082.16 L 2106.13,3085.3 L 2115.66,3090.39 L 2124.01,3097.25 L 2130.87,3105.6 L 2135.96,3115.13 L 2139.1,3125.47 L 2140.16,3136.22 L 2139.1,3146.97 L 2135.96,3157.31 L 2130.87,3166.84 L 2124.01,3175.19 L 2115.66,3182.05 L 2106.13,3187.14 L 2095.79,3190.28 L 2085.04,3191.34 L 2074.29,3190.28 L 2063.95,3187.14 L 2054.42,3182.05 L 2046.55,3175.59 L 1844.09,3175.59 L 1844.09,3195.28 L 1725.98,3195.28 z " style="fill-opacity:1.000000;fill:rgb(50,13,183);stroke:rgb(0,0,0);stroke-width:2"/></g>
<g fill-rule="evenodd"><path d="M 2029.92,2536.22 L 2030.98,2525.47 L 2034.12,2515.13 L 2039.21,2505.6 L 2046.06,2497.25 L 2054.42,2490.39 L 2063.95,2485.3 L 2074.29,2482.16 L 2085.04,2481.1 L 2095.79,2482.16 L 2106.13,2485.3 L 2115.66,2490.39 L 2124.01,2497.25 L 2130.87,2505.6 L 2135.96,2515.13 L 2139.1,2525.47 L 2140.1,2535.6 L 2401.35,2796.85 L 2536.25,2796.85 L 2540.5,2791.68 L 2550.04,2783.84 L 2560.93,2778.02 L 2572.75,2774.44 L 2585.04,2773.23 L 2597.33,2774.44 L 2609.15,2778.02 L 2620.04,2783.84 L 2629.58,2791.68 L 2637.42,2801.22 L 2643.24,2812.11 L 2646.82,2823.93 L 2648.03,2836.22 L 2646.82,2848.51 L 2643.24,2860.33 L 2637.42,2871.22 L 2629.58,2880.76 L 2620.04,2888.6 L 2609.15,2894.42 L 2597.33,2898 L 2585.04,2899.21 L 2572.75,2898 L 2560.93,2894.42 L 2550.04,2888.6 L 2540.5,2880.76 L 2536.25,2875.59 L 2385.04,2875.59 L 2377.36,2874.83 L 2369.97,2872.59 L 2363.17,2868.96 L 2357.2,2864.06 L 2084.42,2591.28 L 2074.29,2590.28 L 2063.95,2587.14 L 2054.42,2582.05 L 2046.06,2575.19 L 2039.21,2566.84 L 2034.12,2557.31 L 2030.98,2546.97 L 2029.92,2536.22 z " style="fill-opacity:1.000000;fill:rgb(49,88,163);stroke:rgb(0,0,0);stroke-width:2"/></g>
<g fill-rule="evenodd"><path d="M 2125.98,3436.22 L 2127.12,3424.7 L 2130.48,3413.62 L 2135.94,3403.41 L 2143.28,3394.46 L 2152.23,3387.12 L 2162.44,3381.66 L 2173.52,3378.3 L 2185.04,3377.17 L 2196.56,3378.3 L 2207.64,3381.66 L 2217.85,3387.12 L 2226.8,3394.46 L 2228.76,3396.85 L 2738.84,3396.85 L 2740.5,3394.83 L 2745.67,3390.58 L 2745.67,2885.01 L 2740.5,2880.76 L 2732.66,2871.22 L 2726.84,2860.33 L 2723.26,2848.51 L 2722.05,2836.22 L 2723.26,2823.93 L 2726.84,2812.11 L 2732.66,2801.22 L 2740.5,2791.68 L 2745.67,2787.43 L 2745.67,2152.53 L 2557.2,1964.06 L 2552.3,1958.09 L 2548.67,1951.29 L 2546.43,1943.9 L 2545.67,1936.22 L 2545.67,1913.39 L 2486.61,1913.39 L 2486.61,1559.06 L 2683.46,1559.06 L 2683.46,1913.39 L 2624.41,1913.39 L 2624.41,1919.91 L 2812.88,2108.38 L 2817.77,2114.35 L 2821.41,2121.15 L 2823.65,2128.54 L 2824.41,2136.22 L 2824.41,2787.43 L 2829.58,2791.68 L 2837.42,2801.22 L 2843.24,2812.11 L 2846.82,2823.93 L 2848.03,2836.22 L 2846.82,2848.51 L 2843.24,2860.33 L 2837.42,2871.22 L 2829.58,2880.76 L 2824.41,2885.01 L 2824.41,3390.58 L 2829.58,3394.83 L 2837.42,3404.37 L 2843.24,3415.26 L 2846.82,3427.08 L 2848.03,3439.37 L 2846.82,3451.66 L 2843.24,3463.48 L 2837.42,3474.37 L 2829.58,3483.91 L 2820.04,3491.75 L 2809.15,3497.57 L 2797.33,3501.15 L 2785.04,3502.36 L 2772.75,3501.15 L 2760.93,3497.57 L 2750.04,3491.75 L 2740.5,3483.91 L 2733.67,3475.59 L 2228.76,3475.59 L 2226.8,3477.98 L 2217.85,3485.32 L 2207.64,3490.78 L 2196.56,3494.14 L 2185.04,3495.28 L 2173.52,3494.14 L 2162.44,3490.78 L 2152.23,3485.32 L 2143.28,3477.98 L 2135.94,3469.03 L 2130.48,3458.82 L 2127.12,3447.74 L 2125.98,3436.22 z " style="fill-opacity:1.000000;fill:rgb(90,37,93);stroke:rgb(0,0,0);stroke-width:2"/></g>
<g fill-rule="evenodd"><path d="M 2398.43,1036.22 L 2400.09,1019.32 L 2405.02,1003.07 L 2413.02,988.1 L 2423.79,974.975 L 2436.92,964.203 L 2451.89,956.199 L 2468.14,951.271 L 2485.04,949.606 L 2501.94,951.271 L 2518.19,956.199 L 2520.58,957.48 L 2706.3,957.48 L 2706.3,338.583 L 2682.68,338.583 L 2682.68,133.858 L 2887.4,133.858 L 2887.4,338.583 L 2863.78,338.583 L 2863.78,1036.22 L 2862.27,1051.58 L 2857.79,1066.35 L 2850.51,1079.97 L 2840.72,1091.9 L 2828.79,1101.69 L 2815.17,1108.97 L 2800.4,1113.45 L 2785.04,1114.96 L 2520.58,1114.96 L 2518.19,1116.24 L 2501.94,1121.17 L 2485.04,1122.83 L 2468.14,1121.17 L 2451.89,1116.24 L 2436.92,1108.24 L 2423.79,1097.47 L 2413.02,1084.34 L 2405.02,1069.37 L 2400.09,1053.12 L 2398.43,1036.22 z " style="fill-opacity:1.000000;fill:rgb(5,23,88);stroke:rgb(0,0,0);stroke-width:2"/></g>
</svg>
