M48
;DRILL file {KiCad 5.0.2+dfsg1-1+deb10u1} date ven 06 set 2024 18:10:49 CEST
;FORMAT={-:-/ absolute / metric / decimal}
FMAT,2
METRIC,TZ
T1C0.700
T2C0.750
T3C0.800
T4C1.000
T5C1.100
T6C1.300
T7C1.500
%
G90
G05
T1
X50.8Y-95.25
X43.18Y-100.33
X43.18Y-107.95
X39.37Y-95.25
X39.37Y-102.87
X50.8Y-102.87
T2
X46.99Y-95.25
X46.99Y-102.87
T3
X52.07Y-106.68
X52.07Y-109.22
X52.07Y-111.76
X57.15Y-99.06
X59.69Y-99.06
X26.67Y-95.25
X26.67Y-97.79
X26.67Y-100.33
X26.67Y-102.87
X34.29Y-95.25
X34.29Y-97.79
X34.29Y-100.33
X34.29Y-102.87
X59.69Y-106.72
X59.69Y-109.22
T4
X26.67Y-107.95
X29.21Y-107.95
X31.75Y-107.95
X36.83Y-113.03
X36.83Y-115.57
X31.75Y-113.03
X31.75Y-115.57
X34.29Y-82.55
X34.29Y-87.55
T5
X45.72Y-76.2
X55.88Y-76.2
T6
X54.69Y-66.04
X59.69Y-66.04
X27.94Y-69.85
X27.94Y-74.85
X39.45Y-66.04
X44.45Y-66.04
T7
X46.25Y-85.09
X51.7Y-85.09
X57.15Y-85.09
T0
M30
