G04 #@! TF.GenerationSoftware,KiCad,Pcbnew,5.0.2+dfsg1-1+deb10u1*
G04 #@! TF.CreationDate,2024-09-06T18:10:44+02:00*
G04 #@! TF.ProjectId,rev2,72657632-2e6b-4696-9361-645f70636258,rev?*
G04 #@! TF.SameCoordinates,Original*
G04 #@! TF.FileFunction,Copper,L1,Top*
G04 #@! TF.FilePolarity,Positive*
%FSLAX46Y46*%
G04 Gerber Fmt 4.6, Leading zero omitted, Abs format (unit mm)*
G04 Created by KiCad (PCBNEW 5.0.2+dfsg1-1+deb10u1) date ven 06 set 2024 18:10:44 CEST*
%MOMM*%
%LPD*%
G01*
G04 APERTURE LIST*
G04 #@! TA.AperFunction,ComponentPad*
%ADD10R,2.500000X4.500000*%
G04 #@! TD*
G04 #@! TA.AperFunction,ComponentPad*
%ADD11O,2.500000X4.500000*%
G04 #@! TD*
G04 #@! TA.AperFunction,ComponentPad*
%ADD12R,2.000000X2.000000*%
G04 #@! TD*
G04 #@! TA.AperFunction,ComponentPad*
%ADD13C,2.000000*%
G04 #@! TD*
G04 #@! TA.AperFunction,ComponentPad*
%ADD14R,1.700000X1.700000*%
G04 #@! TD*
G04 #@! TA.AperFunction,ComponentPad*
%ADD15O,1.700000X1.700000*%
G04 #@! TD*
G04 #@! TA.AperFunction,ComponentPad*
%ADD16C,1.400000*%
G04 #@! TD*
G04 #@! TA.AperFunction,ComponentPad*
%ADD17O,1.400000X1.400000*%
G04 #@! TD*
G04 #@! TA.AperFunction,ComponentPad*
%ADD18R,2.200000X2.200000*%
G04 #@! TD*
G04 #@! TA.AperFunction,ComponentPad*
%ADD19O,2.200000X2.200000*%
G04 #@! TD*
G04 #@! TA.AperFunction,ComponentPad*
%ADD20R,2.600000X2.600000*%
G04 #@! TD*
G04 #@! TA.AperFunction,ComponentPad*
%ADD21C,2.600000*%
G04 #@! TD*
G04 #@! TA.AperFunction,ComponentPad*
%ADD22C,1.500000*%
G04 #@! TD*
G04 #@! TA.AperFunction,ComponentPad*
%ADD23R,1.500000X1.500000*%
G04 #@! TD*
G04 #@! TA.AperFunction,ComponentPad*
%ADD24C,1.600000*%
G04 #@! TD*
G04 #@! TA.AperFunction,ComponentPad*
%ADD25O,1.500000X1.500000*%
G04 #@! TD*
G04 #@! TA.AperFunction,ComponentPad*
%ADD26O,1.600000X1.600000*%
G04 #@! TD*
G04 #@! TA.AperFunction,ComponentPad*
%ADD27R,1.600000X1.600000*%
G04 #@! TD*
G04 #@! TA.AperFunction,Conductor*
%ADD28C,3.000000*%
G04 #@! TD*
G04 #@! TA.AperFunction,Conductor*
%ADD29C,1.000000*%
G04 #@! TD*
G04 #@! TA.AperFunction,Conductor*
%ADD30C,2.000000*%
G04 #@! TD*
G04 #@! TA.AperFunction,Conductor*
%ADD31C,2.500000*%
G04 #@! TD*
G04 APERTURE END LIST*
D10*
G04 #@! TO.P,Qmot1,1*
G04 #@! TO.N,Net-(Cmot3-Pad2)*
X57150000Y-85090000D03*
D11*
G04 #@! TO.P,Qmot1,2*
G04 #@! TO.N,Net-(Cmot1-Pad2)*
X51700000Y-85090000D03*
G04 #@! TO.P,Qmot1,3*
G04 #@! TO.N,GND*
X46250000Y-85090000D03*
G04 #@! TD*
D12*
G04 #@! TO.P,Cmot1,1*
G04 #@! TO.N,Net-(Cmot1-Pad1)*
X34290000Y-82550000D03*
D13*
G04 #@! TO.P,Cmot1,2*
G04 #@! TO.N,Net-(Cmot1-Pad2)*
X34290000Y-87550000D03*
G04 #@! TD*
D14*
G04 #@! TO.P,RV1,1*
G04 #@! TO.N,+BATT*
X31750000Y-107950000D03*
D15*
G04 #@! TO.P,RV1,2*
G04 #@! TO.N,Net-(RV1-Pad2)*
X29210000Y-107950000D03*
G04 #@! TO.P,RV1,3*
G04 #@! TO.N,GND*
X26670000Y-107950000D03*
G04 #@! TD*
D16*
G04 #@! TO.P,Rbjt2,1*
G04 #@! TO.N,Net-(D3-Pad1)*
X50800000Y-102870000D03*
D17*
G04 #@! TO.P,Rbjt2,2*
G04 #@! TO.N,Net-(L2-Pad1)*
X50800000Y-95250000D03*
G04 #@! TD*
D18*
G04 #@! TO.P,D1,1*
G04 #@! TO.N,Net-(Cmot1-Pad1)*
X45720000Y-76200000D03*
D19*
G04 #@! TO.P,D1,2*
G04 #@! TO.N,Net-(D1-Pad2)*
X55880000Y-76200000D03*
G04 #@! TD*
D20*
G04 #@! TO.P,J4,1*
G04 #@! TO.N,Net-(D1-Pad2)*
X59690000Y-66040000D03*
D21*
G04 #@! TO.P,J4,2*
G04 #@! TO.N,GND*
X54690000Y-66040000D03*
G04 #@! TD*
G04 #@! TO.P,J3,2*
G04 #@! TO.N,Net-(Cmot1-Pad2)*
X27940000Y-74850000D03*
D20*
G04 #@! TO.P,J3,1*
G04 #@! TO.N,Net-(Cmot1-Pad1)*
X27940000Y-69850000D03*
G04 #@! TD*
G04 #@! TO.P,J2,1*
G04 #@! TO.N,GND*
X44450000Y-66040000D03*
D21*
G04 #@! TO.P,J2,2*
G04 #@! TO.N,Net-(Cmot1-Pad1)*
X39450000Y-66040000D03*
G04 #@! TD*
D22*
G04 #@! TO.P,Q3,2*
G04 #@! TO.N,Net-(Q3-Pad2)*
X52070000Y-109220000D03*
G04 #@! TO.P,Q3,3*
G04 #@! TO.N,Net-(Cmot3-Pad2)*
X52070000Y-106680000D03*
D23*
G04 #@! TO.P,Q3,1*
G04 #@! TO.N,GND*
X52070000Y-111760000D03*
G04 #@! TD*
D15*
G04 #@! TO.P,J6,2*
G04 #@! TO.N,GND*
X36830000Y-115570000D03*
D14*
G04 #@! TO.P,J6,1*
G04 #@! TO.N,Net-(J6-Pad1)*
X36830000Y-113030000D03*
G04 #@! TD*
G04 #@! TO.P,J5,1*
G04 #@! TO.N,+BATT*
X31750000Y-113030000D03*
D15*
G04 #@! TO.P,J5,2*
G04 #@! TO.N,GND*
X31750000Y-115570000D03*
G04 #@! TD*
D24*
G04 #@! TO.P,Cmot3,1*
G04 #@! TO.N,GND*
X59690000Y-109220000D03*
G04 #@! TO.P,Cmot3,2*
G04 #@! TO.N,Net-(Cmot3-Pad2)*
X59690000Y-106720000D03*
G04 #@! TD*
D23*
G04 #@! TO.P,D3,1*
G04 #@! TO.N,Net-(D3-Pad1)*
X46990000Y-102870000D03*
D25*
G04 #@! TO.P,D3,2*
G04 #@! TO.N,+BATT*
X46990000Y-95250000D03*
G04 #@! TD*
D24*
G04 #@! TO.P,L2,1*
G04 #@! TO.N,Net-(L2-Pad1)*
X57150000Y-99060000D03*
D26*
G04 #@! TO.P,L2,2*
G04 #@! TO.N,Net-(Cmot3-Pad2)*
X59690000Y-99060000D03*
G04 #@! TD*
D27*
G04 #@! TO.P,U2,1*
G04 #@! TO.N,Net-(U2-Pad1)*
X26670000Y-95250000D03*
D26*
G04 #@! TO.P,U2,5*
G04 #@! TO.N,Net-(J6-Pad1)*
X34290000Y-102870000D03*
G04 #@! TO.P,U2,2*
G04 #@! TO.N,Net-(RV1-Pad2)*
X26670000Y-97790000D03*
G04 #@! TO.P,U2,6*
G04 #@! TO.N,Net-(U2-Pad6)*
X34290000Y-100330000D03*
G04 #@! TO.P,U2,3*
G04 #@! TO.N,Net-(U2-Pad3)*
X26670000Y-100330000D03*
G04 #@! TO.P,U2,7*
G04 #@! TO.N,Net-(Rbjt1-Pad2)*
X34290000Y-97790000D03*
G04 #@! TO.P,U2,4*
G04 #@! TO.N,GND*
X26670000Y-102870000D03*
G04 #@! TO.P,U2,8*
G04 #@! TO.N,+BATT*
X34290000Y-95250000D03*
G04 #@! TD*
D17*
G04 #@! TO.P,Rpls1,2*
G04 #@! TO.N,Net-(J6-Pad1)*
X39370000Y-102870000D03*
D16*
G04 #@! TO.P,Rpls1,1*
G04 #@! TO.N,+BATT*
X39370000Y-95250000D03*
G04 #@! TD*
G04 #@! TO.P,Rbjt1,1*
G04 #@! TO.N,Net-(Q3-Pad2)*
X43180000Y-107950000D03*
D17*
G04 #@! TO.P,Rbjt1,2*
G04 #@! TO.N,Net-(Rbjt1-Pad2)*
X43180000Y-100330000D03*
G04 #@! TD*
D28*
G04 #@! TO.N,GND*
X44450000Y-66040000D02*
X46750000Y-66040000D01*
X46750000Y-66040000D02*
X52070000Y-66040000D01*
X52070000Y-66040000D02*
X54690000Y-66040000D01*
D29*
X34290000Y-115570000D02*
X31750000Y-115570000D01*
X30547919Y-115570000D02*
X26670000Y-111692081D01*
X26670000Y-102870000D02*
X26670000Y-110490000D01*
X26670000Y-111692081D02*
X26670000Y-110490000D01*
X31750000Y-115570000D02*
X30547919Y-115570000D01*
X26670000Y-110490000D02*
X26670000Y-111760000D01*
X52070000Y-111760000D02*
X52070000Y-115570000D01*
X52070000Y-115570000D02*
X34290000Y-115570000D01*
X59690000Y-111760000D02*
X52070000Y-111760000D01*
X59690000Y-111760000D02*
X59690000Y-109220000D01*
X58420000Y-80010000D02*
X50800000Y-80010000D01*
X62230000Y-80010000D02*
X58420000Y-80010000D01*
X62230000Y-109220000D02*
X62230000Y-80010000D01*
X59690000Y-109220000D02*
X62230000Y-109220000D01*
D28*
X50800000Y-80010000D02*
X50800000Y-66040000D01*
X48080000Y-80010000D02*
X50800000Y-80010000D01*
X46250000Y-81840000D02*
X48080000Y-80010000D01*
X46250000Y-85090000D02*
X46250000Y-81840000D01*
D30*
G04 #@! TO.N,Net-(Cmot1-Pad1)*
X45720000Y-76200000D02*
X39370000Y-76200000D01*
D31*
X39370000Y-73660000D02*
X39370000Y-76200000D01*
D29*
X39370000Y-73660000D02*
X39450000Y-73580000D01*
D28*
X27940000Y-69850000D02*
X39450000Y-69850000D01*
D31*
X39450000Y-73580000D02*
X39450000Y-69850000D01*
D28*
X39450000Y-69850000D02*
X39450000Y-66040000D01*
D31*
X39370000Y-76200000D02*
X39370000Y-82550000D01*
X39370000Y-82550000D02*
X34290000Y-82550000D01*
D29*
G04 #@! TO.N,Net-(D3-Pad1)*
X50800000Y-102870000D02*
X46990000Y-102870000D01*
G04 #@! TO.N,Net-(Cmot3-Pad2)*
X57150000Y-87630000D02*
X57150000Y-85090000D01*
X59690000Y-90170000D02*
X57150000Y-87630000D01*
X59650000Y-106680000D02*
X59690000Y-106720000D01*
X52070000Y-106680000D02*
X59650000Y-106680000D01*
X59690000Y-106720000D02*
X59690000Y-101600000D01*
X59690000Y-102870000D02*
X59690000Y-101600000D01*
X59690000Y-99060000D02*
X59690000Y-90170000D01*
X59690000Y-99060000D02*
X59690000Y-101600000D01*
D28*
G04 #@! TO.N,Net-(Cmot1-Pad2)*
X27940000Y-78660000D02*
X27940000Y-90170000D01*
X27940000Y-74850000D02*
X27940000Y-78660000D01*
D29*
X31870000Y-90050000D02*
X31750000Y-90170000D01*
X39370000Y-90170000D02*
X39250000Y-90050000D01*
D28*
X28060000Y-90170000D02*
X31750000Y-90170000D01*
D31*
X34290000Y-87630000D02*
X34290000Y-90130000D01*
D28*
X31750000Y-90170000D02*
X39370000Y-90170000D01*
X51700000Y-85090000D02*
X51700000Y-89270000D01*
X51700000Y-89270000D02*
X50800000Y-90170000D01*
X50800000Y-90170000D02*
X39370000Y-90170000D01*
D29*
G04 #@! TO.N,Net-(Rbjt1-Pad2)*
X43180000Y-100330000D02*
X40640000Y-100330000D01*
X40640000Y-100330000D02*
X38100000Y-97790000D01*
X38100000Y-97790000D02*
X34290000Y-97790000D01*
G04 #@! TO.N,Net-(Q3-Pad2)*
X43180000Y-107950000D02*
X43180000Y-109220000D01*
X43180000Y-109220000D02*
X52070000Y-109220000D01*
G04 #@! TO.N,+BATT*
X46990000Y-95250000D02*
X39370000Y-95250000D01*
X34290000Y-95250000D02*
X36830000Y-95250000D01*
X36830000Y-95250000D02*
X39370000Y-95250000D01*
X34290000Y-95250000D02*
X31750000Y-95250000D01*
X31750000Y-113030000D02*
X31750000Y-104140000D01*
X31750000Y-105410000D02*
X31750000Y-104140000D01*
X31750000Y-104140000D02*
X31750000Y-95250000D01*
D30*
G04 #@! TO.N,Net-(D1-Pad2)*
X59690000Y-66040000D02*
X59690000Y-76200000D01*
X59690000Y-76200000D02*
X55880000Y-76200000D01*
D29*
G04 #@! TO.N,Net-(J6-Pad1)*
X36830000Y-113030000D02*
X36830000Y-106680000D01*
X39370000Y-102870000D02*
X36830000Y-102870000D01*
X36830000Y-102870000D02*
X34290000Y-102870000D01*
X36830000Y-106680000D02*
X36830000Y-102870000D01*
G04 #@! TO.N,Net-(L2-Pad1)*
X54610000Y-99060000D02*
X50800000Y-95250000D01*
X57150000Y-99060000D02*
X54610000Y-99060000D01*
G04 #@! TO.N,Net-(RV1-Pad2)*
X29210000Y-107950000D02*
X29210000Y-97790000D01*
X29210000Y-97790000D02*
X26670000Y-97790000D01*
G04 #@! TD*
M02*
