G04 #@! TF.GenerationSoftware,KiCad,Pcbnew,5.0.2+dfsg1-1+deb10u1*
G04 #@! TF.CreationDate,2024-04-28T19:44:51+02:00*
G04 #@! TF.ProjectId,ANONI,414e4f4e-492e-46b6-9963-61645f706362,rev?*
G04 #@! TF.SameCoordinates,Original*
G04 #@! TF.FileFunction,Copper,L1,Top*
G04 #@! TF.FilePolarity,Positive*
%FSLAX46Y46*%
G04 Gerber Fmt 4.6, Leading zero omitted, Abs format (unit mm)*
G04 Created by KiCad (PCBNEW 5.0.2+dfsg1-1+deb10u1) date dom 28 apr 2024 19:44:51 CEST*
%MOMM*%
%LPD*%
G01*
G04 APERTURE LIST*
G04 #@! TA.AperFunction,ComponentPad*
%ADD10R,1.600000X1.600000*%
G04 #@! TD*
G04 #@! TA.AperFunction,ComponentPad*
%ADD11O,1.600000X1.600000*%
G04 #@! TD*
G04 #@! TA.AperFunction,ComponentPad*
%ADD12C,2.400000*%
G04 #@! TD*
G04 #@! TA.AperFunction,ComponentPad*
%ADD13O,2.400000X2.400000*%
G04 #@! TD*
G04 #@! TA.AperFunction,ComponentPad*
%ADD14R,2.000000X2.000000*%
G04 #@! TD*
G04 #@! TA.AperFunction,ComponentPad*
%ADD15O,2.000000X2.000000*%
G04 #@! TD*
G04 #@! TA.AperFunction,ComponentPad*
%ADD16R,1.800000X1.800000*%
G04 #@! TD*
G04 #@! TA.AperFunction,ComponentPad*
%ADD17O,1.800000X1.800000*%
G04 #@! TD*
G04 #@! TA.AperFunction,ComponentPad*
%ADD18C,2.600000*%
G04 #@! TD*
G04 #@! TA.AperFunction,ComponentPad*
%ADD19R,2.600000X2.600000*%
G04 #@! TD*
G04 #@! TA.AperFunction,Conductor*
%ADD20C,1.000000*%
G04 #@! TD*
G04 APERTURE END LIST*
D10*
G04 #@! TO.P,DProtez1,1*
G04 #@! TO.N,GND*
X177800000Y87630000D03*
D11*
G04 #@! TO.P,DProtez1,2*
G04 #@! TO.N,Net-(D43v1-Pad2)*
X177800000Y80010000D03*
G04 #@! TD*
D12*
G04 #@! TO.P,r1500ohm_0.5W1,1*
G04 #@! TO.N,Net-(JPannSol1-Pad2)*
X176530000Y60960000D03*
D13*
G04 #@! TO.P,r1500ohm_0.5W1,2*
G04 #@! TO.N,Net-(Q1-Pad3)*
X176530000Y76200000D03*
G04 #@! TD*
D14*
G04 #@! TO.P,D43v1,1*
G04 #@! TO.N,Net-(D43v1-Pad1)*
X168910000Y80010000D03*
D15*
G04 #@! TO.P,D43v1,2*
G04 #@! TO.N,Net-(D43v1-Pad2)*
X173990000Y80010000D03*
G04 #@! TD*
D16*
G04 #@! TO.P,Q1,1*
G04 #@! TO.N,Net-(JBici1-Pad1)*
X165100000Y72390000D03*
D17*
G04 #@! TO.P,Q1,2*
G04 #@! TO.N,Net-(JPannSol1-Pad2)*
X167640000Y72390000D03*
G04 #@! TO.P,Q1,3*
G04 #@! TO.N,Net-(Q1-Pad3)*
X170180000Y72390000D03*
G04 #@! TD*
D18*
G04 #@! TO.P,JPannSol1,2*
G04 #@! TO.N,Net-(JPannSol1-Pad2)*
X168990000Y53340000D03*
D19*
G04 #@! TO.P,JPannSol1,1*
G04 #@! TO.N,GND*
X173990000Y53340000D03*
G04 #@! TD*
G04 #@! TO.P,JBici1,1*
G04 #@! TO.N,Net-(JBici1-Pad1)*
X166370000Y90170000D03*
D18*
G04 #@! TO.P,JBici1,2*
G04 #@! TO.N,GND*
X171370000Y90170000D03*
G04 #@! TD*
D10*
G04 #@! TO.P,led1,1*
G04 #@! TO.N,Net-(Q1-Pad3)*
X172720000Y76200000D03*
D11*
G04 #@! TO.P,led1,2*
G04 #@! TO.N,Net-(D43v1-Pad1)*
X170180000Y76200000D03*
G04 #@! TD*
D20*
G04 #@! TO.N,GND*
X173990000Y53340000D02*
X180340000Y53340000D01*
X180340000Y53340000D02*
X180340000Y90170000D01*
X177800000Y89430000D02*
X177800000Y90170000D01*
X177800000Y87630000D02*
X177800000Y89430000D01*
X180340000Y90170000D02*
X177800000Y90170000D01*
X177800000Y90170000D02*
X173910000Y90170000D01*
X171370000Y90170000D02*
X173910000Y90170000D01*
G04 #@! TO.N,Net-(D43v1-Pad1)*
X170180000Y76200000D02*
X168910000Y76200000D01*
X168910000Y76200000D02*
X168910000Y80010000D01*
G04 #@! TO.N,Net-(JBici1-Pad1)*
X166370000Y90170000D02*
X165100000Y90170000D01*
X165100000Y90170000D02*
X165100000Y72390000D01*
G04 #@! TO.N,Net-(JPannSol1-Pad2)*
X168990000Y60880000D02*
X168910000Y60960000D01*
X167640000Y60960000D02*
X168910000Y60960000D01*
X167640000Y72390000D02*
X167640000Y60960000D01*
X168910000Y60960000D02*
X176530000Y60960000D01*
X168990000Y53340000D02*
X168990000Y60880000D01*
G04 #@! TO.N,Net-(Q1-Pad3)*
X176530000Y76200000D02*
X172720000Y76200000D01*
X170180000Y72390000D02*
X172720000Y72390000D01*
X172720000Y72390000D02*
X172720000Y76200000D01*
G04 #@! TO.N,Net-(D43v1-Pad2)*
X173990000Y80010000D02*
X177800000Y80010000D01*
G04 #@! TD*
M02*
